<?xml version="1.0" encoding="utf-8"?>
<!-- Generator: Adobe Illustrator 26.0.1, SVG Export Plug-In . SVG Version: 6.00 Build 0)  -->
<svg version="1.1" id="Layer_1" xmlns="http://www.w3.org/2000/svg" xmlns:xlink="http://www.w3.org/1999/xlink" x="0px" y="0px"
	 viewBox="0 0 32 26" style="enable-background:new 0 0 32 26;" xml:space="preserve">
<style type="text/css">
	.st0{fill:#FF4C60;}
	.st1{fill:#17002F;}
	.st2{font-family:'Haettenschweiler';}
	.st3{font-size:30.2023px;}
</style>
<desc>Created with Sketch.</desc>
<g id="Symbols">
	<g id="header-2-copy-7" transform="translate(-44.000000, -61.000000)">
		<g id="header-2">
			<g id="header">
				<g id="B." transform="translate(44.448000, 61.800000)">
					<path id="_x2E_" class="st0" d="M26.6,23.7c0.3,0,0.5-0.1,0.6-0.3c0.2-0.2,0.3-0.4,0.3-0.6l0,0V18c0-0.3-0.1-0.5-0.3-0.7
						c-0.2-0.2-0.4-0.3-0.6-0.3l0,0h-4.8c-0.3,0-0.5,0.1-0.7,0.3c-0.2,0.2-0.3,0.4-0.3,0.7l0,0v4.8c0,0.3,0.1,0.5,0.3,0.6
						c0.2,0.2,0.4,0.3,0.7,0.3l0,0H26.6z"/>
				</g>
			</g>
		</g>
	</g>
</g>
<text transform="matrix(1 0 0 1 6.5193 24.7085)" class="st1 st2 st3">S</text>
</svg>
